{"title":"Formula.1.2016x14.Italy.Race.SkyF1HD.1080p50-smcgill1969","uid":15749565,"size":13148284951,"categoryP":"video","categoryS":"other","magnet":"?xt=urn:btih:1cbefdcd1a1fed3a924f27c2141352ac92f45ffa&amp;dn=Formula.1.2016x14.Italy.Race.SkyF1HD.1080p50-smcgill1969&amp;tr=udp%3A%2F%2Ftracker.leechers-paradise.org%3A6969&amp;tr=udp%3A%2F%2Fzer0day.ch%3A1337&amp;tr=udp%3A%2F%2Fopen.demonii.com%3A1337&amp;tr=udp%3A%2F%2Ftracker.coppersurfer.tk%3A6969&amp;tr=udp%3A%2F%2Fexodus.desync.com%3A6969","seeders":25,"leechers":19,"uploader":"GaYoonFan","files":3,"time":1473016533,"description":"Formula.1.2016x14.Italy.Race.SkyF1HD.1080p50-smcgill1969:\r\n\r\nThe 2016 Italian Grand Prix from Monza.\r\n\r\n Video\r\n ID : 1\r\n Format : AVC\r\n Format/Info : Advanced Video Codec\r\n Format profile :   \r\n Format settings, CABAC : Yes\r\n Format settings, ReFrames : 2 frames\r\n Format settings, GOP : M=3, N=24\r\n Codec ID : avc1\r\n Codec ID/Info : Advanced Video Coding\r\n Duration : 1h 25mn\r\n Bit rate mode : Variable\r\n Bit rate : 5 999 Kbps\r\n Maximum bit rate : 12.4 Mbps\r\n Width : 1 920 pixels\r\n Height : 1 080 pixels\r\n Original height : 1 088 pixels\r\n Display aspect ratio : 16:9\r\n Original display aspect ratio : 16:9\r\n Frame rate mode : Variable\r\n Frame rate : 50.000 fps\r\n Minimum frame rate : 41.632 fps\r\n Maximum frame rate : 50.000 fps\r\n Color space : YUV\r\n Chroma subsampling : 4:2:0\r\n Bit depth : 8 bits\r\n Scan type : Progressive\r\n Bits/(Pixel*Frame) : 0.058\r\n Stream size : 3.56 GiB (96%)\r\n Language : English\r\n Encoded date : UTC 2016-09-04 10:30:06\r\n Tagged date : UTC 2016-09-04 11:55:14\r\n\r\n Audio\r\n ID : 2\r\n Format : AAC\r\n Format/Info : Advanced Audio Codec\r\n Format profile : LC\r\n Codec ID : 40\r\n Duration : 1h 25mn\r\n Bit rate mode : Constant\r\n Bit rate : 256 Kbps\r\n Channel(s) : 2 channels\r\n Channel positions : Front: L R\r\n Sampling rate : 48.0 KHz\r\n Frame rate : 46.875 fps (1024 spf)\r\n Compression mode : Lossy\r\n Stream size : 154 MiB (4%)\r\n Language : English\r\n Encoded date : UTC 2016-09-04 10:30:06\r\n Tagged date : UTC 2016-09-04 11:55:14","torrent":{"xt":"urn:btih:1cbefdcd1a1fed3a924f27c2141352ac92f45ffa","amp;dn":"Formula.1.2016x14.Italy.Race.SkyF1HD.1080p50-smcgill1969","amp;tr":["udp%3A%2F%2Ftracker.leechers-paradise.org%3A6969","udp%3A%2F%2Fzer0day.ch%3A1337","udp%3A%2F%2Fopen.demonii.com%3A1337","udp%3A%2F%2Ftracker.coppersurfer.tk%3A6969","udp%3A%2F%2Fexodus.desync.com%3A6969"],"infoHash":"1cbefdcd1a1fed3a924f27c2141352ac92f45ffa","infoHashBuffer":{"type":"Buffer","data":[28,190,253,205,26,31,237,58,146,79,39,194,20,19,82,172,146,244,95,250]},"announce":[],"urlList":[]}}